<svg width="1600" height="900" viewBox="0 0 1600 900" fill="none" xmlns="http://www.w3.org/2000/svg">
  <rect width="1600" height="900" fill="#120F0D"/>
  <rect x="40" y="40" width="1520" height="820" rx="28" fill="#1A1816" stroke="#252220" stroke-width="2"/>
  <rect x="40" y="40" width="1520" height="70" rx="28" fill="#161412"/>
  <circle cx="84" cy="75" r="10" fill="#B06858"/>
  <circle cx="116" cy="75" r="10" fill="#C8A060"/>
  <circle cx="148" cy="75" r="10" fill="#7AB870"/>
  <rect x="220" y="58" width="270" height="34" rx="17" fill="#252220"/>
  <text x="252" y="81" fill="#7A736C" font-family="ui-monospace, SFMono-Regular, Menlo, Consolas, monospace" font-size="20">kana-dark.tsx</text>
  <rect x="40" y="110" width="94" height="750" fill="#161412"/>
  <rect x="134" y="110" width="340" height="750" fill="#1A1816"/>
  <rect x="474" y="110" width="1086" height="750" fill="#1A1816"/>
  <rect x="134" y="110" width="340" height="46" fill="#1A1816"/>
  <text x="168" y="140" fill="#A88060" font-family="system-ui, sans-serif" font-size="18" font-weight="700" letter-spacing="2">EXPLORER</text>
  <rect x="134" y="156" width="340" height="1" fill="#252220"/>
  <rect x="474" y="110" width="1086" height="46" fill="#1A1816"/>
  <rect x="474" y="156" width="1086" height="1" fill="#252220"/>

  <rect x="62" y="160" width="50" height="50" rx="14" fill="#1F1D1B"/>
  <rect x="62" y="226" width="50" height="50" rx="14" fill="#1F1D1B"/>
  <rect x="62" y="292" width="50" height="50" rx="14" fill="#1F1D1B"/>
  <rect x="62" y="358" width="50" height="50" rx="14" fill="#1F1D1B"/>
  <rect x="62" y="424" width="50" height="50" rx="14" fill="#1F1D1B"/>
  <rect x="82" y="180" width="10" height="10" rx="3" fill="#CEC6BC"/>
  <rect x="82" y="246" width="10" height="10" rx="3" fill="#7A736C"/>
  <rect x="82" y="312" width="10" height="10" rx="3" fill="#7A736C"/>
  <rect x="82" y="378" width="10" height="10" rx="3" fill="#7A736C"/>
  <rect x="82" y="444" width="10" height="10" rx="3" fill="#7A736C"/>
  <rect x="56" y="160" width="6" height="50" rx="3" fill="#C8804A"/>

  <text x="164" y="190" fill="#7A736C" font-family="system-ui, sans-serif" font-size="15" font-weight="700">KANA DARK</text>
  <text x="164" y="224" fill="#CEC6BC" font-family="ui-monospace, SFMono-Regular, Menlo, Consolas, monospace" font-size="18">src</text>
  <text x="164" y="257" fill="#CEC6BC" font-family="ui-monospace, SFMono-Regular, Menlo, Consolas, monospace" font-size="18">themes</text>
  <text x="164" y="290" fill="#D4A87A" font-family="ui-monospace, SFMono-Regular, Menlo, Consolas, monospace" font-size="18">kana-dark.json</text>
  <text x="164" y="323" fill="#CEC6BC" font-family="ui-monospace, SFMono-Regular, Menlo, Consolas, monospace" font-size="18">README.md</text>
  <text x="164" y="356" fill="#7AB870" font-family="ui-monospace, SFMono-Regular, Menlo, Consolas, monospace" font-size="18">package.json</text>
  <text x="164" y="389" fill="#CEC6BC" font-family="ui-monospace, SFMono-Regular, Menlo, Consolas, monospace" font-size="18">.github</text>
  <rect x="150" y="271" width="308" height="30" rx="8" fill="#252220"/>

  <rect x="508" y="192" width="1020" height="34" rx="10" fill="#1F1D1B"/>
  <text x="534" y="214" fill="#7A736C" font-family="ui-monospace, SFMono-Regular, Menlo, Consolas, monospace" font-size="18">src/theme/kana.tsx</text>

  <text x="532" y="280" fill="#4A4540" font-family="ui-monospace, SFMono-Regular, Menlo, Consolas, monospace" font-size="18">1</text>
  <text x="532" y="325" fill="#4A4540" font-family="ui-monospace, SFMono-Regular, Menlo, Consolas, monospace" font-size="18">2</text>
  <text x="532" y="370" fill="#4A4540" font-family="ui-monospace, SFMono-Regular, Menlo, Consolas, monospace" font-size="18">3</text>
  <text x="532" y="415" fill="#4A4540" font-family="ui-monospace, SFMono-Regular, Menlo, Consolas, monospace" font-size="18">4</text>
  <text x="532" y="460" fill="#4A4540" font-family="ui-monospace, SFMono-Regular, Menlo, Consolas, monospace" font-size="18">5</text>
  <text x="532" y="505" fill="#4A4540" font-family="ui-monospace, SFMono-Regular, Menlo, Consolas, monospace" font-size="18">6</text>
  <text x="532" y="550" fill="#4A4540" font-family="ui-monospace, SFMono-Regular, Menlo, Consolas, monospace" font-size="18">7</text>
  <text x="532" y="595" fill="#4A4540" font-family="ui-monospace, SFMono-Regular, Menlo, Consolas, monospace" font-size="18">8</text>
  <text x="532" y="640" fill="#4A4540" font-family="ui-monospace, SFMono-Regular, Menlo, Consolas, monospace" font-size="18">9</text>

  <rect x="572" y="298" width="874" height="38" rx="8" fill="#1F1D1B"/>

  <text x="578" y="280" fill="#CEC6BC" font-family="ui-monospace, SFMono-Regular, Menlo, Consolas, monospace" font-size="24">
    <tspan fill="#C8804A" font-style="italic">export</tspan>
    <tspan> </tspan>
    <tspan fill="#C8804A" font-style="italic">const</tspan>
    <tspan> </tspan>
    <tspan fill="#E8C87A" font-weight="700">kanaTheme</tspan>
    <tspan> = </tspan>
    <tspan>{</tspan>
  </text>

  <text x="578" y="325" fill="#CEC6BC" font-family="ui-monospace, SFMono-Regular, Menlo, Consolas, monospace" font-size="24">
    <tspan>  </tspan>
    <tspan fill="#D4A87A">name</tspan>
    <tspan>: </tspan>
    <tspan fill="#98B060">"Kana Dark"</tspan>
    <tspan>,</tspan>
  </text>

  <text x="578" y="370" fill="#CEC6BC" font-family="ui-monospace, SFMono-Regular, Menlo, Consolas, monospace" font-size="24">
    <tspan>  </tspan>
    <tspan fill="#D4A87A">accent</tspan>
    <tspan>: </tspan>
    <tspan fill="#98B060">"#c8804a"</tspan>
    <tspan>,</tspan>
  </text>

  <text x="578" y="415" fill="#CEC6BC" font-family="ui-monospace, SFMono-Regular, Menlo, Consolas, monospace" font-size="24">
    <tspan>  </tspan>
    <tspan fill="#D4A87A">editorBackground</tspan>
    <tspan>: </tspan>
    <tspan fill="#98B060">"#1a1816"</tspan>
    <tspan>,</tspan>
  </text>

  <text x="578" y="460" fill="#CEC6BC" font-family="ui-monospace, SFMono-Regular, Menlo, Consolas, monospace" font-size="24">
    <tspan>  </tspan>
    <tspan fill="#D4A87A">useItalicComments</tspan>
    <tspan>: </tspan>
    <tspan fill="#7AB870" font-style="italic">true</tspan>
    <tspan>,</tspan>
  </text>

  <text x="578" y="505" fill="#6B6460" font-family="ui-monospace, SFMono-Regular, Menlo, Consolas, monospace" font-size="24" font-style="italic">// warm contrast, quiet chrome</text>

  <text x="578" y="550" fill="#CEC6BC" font-family="ui-monospace, SFMono-Regular, Menlo, Consolas, monospace" font-size="24">};</text>

  <rect x="1188" y="604" width="272" height="180" rx="18" fill="#1F1D1B" stroke="#252220" stroke-width="2"/>
  <text x="1218" y="642" fill="#A88060" font-family="system-ui, sans-serif" font-size="18" font-weight="700">PALETTE</text>
  <circle cx="1234" cy="692" r="16" fill="#C8804A"/>
  <circle cx="1294" cy="692" r="16" fill="#D4A87A"/>
  <circle cx="1354" cy="692" r="16" fill="#7AB870"/>
  <circle cx="1414" cy="692" r="16" fill="#80A898"/>
  <circle cx="1234" cy="746" r="16" fill="#B06858"/>
  <circle cx="1294" cy="746" r="16" fill="#C8A060"/>
  <circle cx="1354" cy="746" r="16" fill="#CEC6BC"/>
  <circle cx="1414" cy="746" r="16" fill="#6B6460"/>

  <text x="508" y="742" fill="#D4CBBF" font-family="system-ui, sans-serif" font-size="44" font-weight="700">Kana Dark</text>
  <text x="508" y="790" fill="#A88060" font-family="system-ui, sans-serif" font-size="26">Warm contrast for code and a calmer workspace.</text>
</svg>
